<?xml version="1.0" encoding="UTF-8"?><svg id="Logo" xmlns="http://www.w3.org/2000/svg" viewBox="0 0 155 32"><defs><style>.cls-1{fill:#fff;}.cls-2{fill:#0ea7e7;}</style></defs><polygon class="cls-2" points=".003 8 13.891 0 27.779 8 27.779 23.999 13.891 31.996 .003 23.999 .003 8"/><path class="cls-1" d="m37.736,10.374v13.599h-1.967V8h2.83l6.955,13.671V8h1.967v15.973h-2.83l-6.955-13.599Z"/><path class="cls-1" d="m62.154,19.344c0,2.641-1.642,4.807-5.735,4.807s-5.735-2.165-5.735-4.807v-6.71c0-2.641,1.642-4.807,5.735-4.807s5.735,2.166,5.735,4.807v6.71Zm-9.423-.047c0,1.951,1.19,3.046,3.688,3.046s3.688-1.095,3.688-3.046v-6.615c0-1.951-1.19-3.046-3.688-3.046s-3.688,1.094-3.688,3.046v6.615Z"/><path class="cls-1" d="m70.905,8c3.909,0,5.133,2.039,5.133,4.581v6.811c0,2.542-1.223,4.581-5.133,4.581h-5.588V8h5.588Zm-3.526,14.127h3.454c2.422,0,3.142-1.007,3.142-2.878v-6.523c0-1.871-.72-2.878-3.142-2.878h-3.454v12.28Z"/><path class="cls-1" d="m79.035,8h9.402v1.847h-7.339v5.013h6.811v1.847h-6.811v5.421h7.362v1.846h-9.425V8Z"/><path class="cls-1" d="m93.115,19.366c0,2.209.855,2.921,3.443,2.921.951,0,2.494-.118,3.706-.332l.214,1.758c-1.14.261-2.802.427-3.99.427-3.872,0-5.415-1.663-5.415-4.656v-6.983c0-2.992,1.543-4.655,5.415-4.655,1.187,0,2.85.166,3.99.428l-.214,1.758c-1.211-.214-2.755-.333-3.706-.333-2.588,0-3.443.713-3.443,2.921v6.746Z"/><path class="cls-1" d="m109.133,18.193h-3.91v5.78h-2.062V8h6.092c3.429,0,4.628,1.487,4.628,3.933v2.302c0,1.894-.695,3.19-2.542,3.718l4.149,6.02h-2.375l-3.981-5.78Zm.048-8.346h-3.958v6.524h3.958c1.966,0,2.638-.552,2.638-2.111v-2.302c0-1.583-.672-2.11-2.638-2.11Z"/><path class="cls-1" d="m129.99,23.973h-2.087l-1.319-3.837h-6.787l-1.295,3.837h-2.087l5.397-15.973h2.782l5.397,15.973Zm-6.787-14.486l-2.854,8.85h5.708l-2.854-8.85Z"/><path class="cls-1" d="m132.1,23.973V8h9.497v1.847h-7.435v5.324h6.931v1.847h-6.931v6.955h-2.063Z"/><path class="cls-1" d="m148.166,9.847h-4.773v-1.847h11.608v1.847h-4.773v14.126h-2.063v-14.126Z"/><polygon class="cls-1" points="20.701 8.248 20.701 12.102 24.083 14.049 21.241 15.676 17.893 13.75 17.893 9.865 20.701 8.248"/><polygon class="cls-1" points="21.184 11.823 21.184 8.19 24.337 10.013 24.337 13.638 21.184 11.823"/><polygon class="cls-1" points="7.079 8.248 7.079 12.102 3.696 14.049 6.539 15.676 9.886 13.75 9.886 9.865 7.079 8.248"/><polygon class="cls-1" points="6.595 11.823 6.595 8.19 3.442 10.013 3.442 13.638 6.595 11.823"/><polygon class="cls-1" points="13.886 23.871 17.248 25.815 17.247 22.568 13.886 20.624 10.542 22.556 10.542 25.806 13.886 23.871"/><polygon class="cls-1" points="13.886 24.43 10.739 26.249 13.891 28.065 17.038 26.252 13.886 24.43"/><polygon class="cls-1" points="14.133 15.889 24.345 21.75 24.345 18.204 17.257 14.12 17.254 5.93 14.133 4.133 14.133 15.889"/><polygon class="cls-1" points="13.649 15.889 13.649 4.136 10.533 5.93 10.53 14.12 3.442 18.204 3.442 21.747 13.649 15.889"/><polygon class="cls-1" points="13.891 16.308 3.664 22.176 6.804 23.992 13.896 19.896 20.98 23.988 24.116 22.175 13.891 16.308"/></svg>